PathFileType	4	(x/y/z)	S10_BK_Cal_T01
DataRate	CameraRate	NumFrames	NumMarkers	Units	OrigDataRate	OrigDataStartFrame	OrigNumFrames
240	240	9	51	mm	240	601	2400
Frame#	Time	Sternum			R.Acromium			L.Acromium			Top.Head			R.ASIS			L.ASIS			R.PSIS			L.PSIS			R.Great.Tro			L.Great.Tro			R.Iliac.Crest			L.Iliac.Crest			V.Sacral			R.Thigh.Upper.Post			R.Thigh.Lower.Ant			R.Thigh.Lower.Post			R.Thigh.Upper.Ant			R.Knee.Lat			R.Knee.Med			R.Shank.Upper.Post			R.Shank.Lower.Ant			R.Shank.Lower.Post			R.Shank.Upper.Ant			R.Ankle.Lat			R.Ankle.Med			R.Heel.Upper			R.Heel.Med			R.Heel.Lat			R.Toe.Lat			R.Toe.Med			R.Toe.Tip			L.Thigh.Upper.Post			L.Thigh.Lower.Ant			L.Thigh.Lower.Post			L.Thigh.Upper.Ant			L.Knee.Lat			L.Knee.Med			L.Shank.Upper.Post			L.Shank.Lower.Ant			L.Shank.Lower.Post			L.Shank.Upper.Ant			L.Ankle.Lat			L.Ankle.Med			L.Heel.Upper			L.Heel.Med			L.Heel.Lat			L.Toe.Lat			L.Toe.Med			L.Toe.Tip			Cervical.Spine			Back			
		X1	Y1	Z1	X2	Y2	Z2	X3	Y3	Z3	X4	Y4	Z4	X5	Y5	Z5	X6	Y6	Z6	X7	Y7	Z7	X8	Y8	Z8	X9	Y9	Z9	X10	Y10	Z10	X11	Y11	Z11	X12	Y12	Z12	X13	Y13	Z13	X14	Y14	Z14	X15	Y15	Z15	X16	Y16	Z16	X17	Y17	Z17	X18	Y18	Z18	X19	Y19	Z19	X20	Y20	Z20	X21	Y21	Z21	X22	Y22	Z22	X23	Y23	Z23	X24	Y24	Z24	X25	Y25	Z25	X26	Y26	Z26	X27	Y27	Z27	X28	Y28	Z28	X29	Y29	Z29	X30	Y30	Z30	X31	Y31	Z31	X32	Y32	Z32	X33	Y33	Z33	X34	Y34	Z34	X35	Y35	Z35	X36	Y36	Z36	X37	Y37	Z37	X38	Y38	Z38	X39	Y39	Z39	X40	Y40	Z40	X41	Y41	Z41	X42	Y42	Z42	X43	Y43	Z43	X44	Y44	Z44	X45	Y45	Z45	X46	Y46	Z46	X47	Y47	Z47	X48	Y48	Z48	X49	Y49	Z49	X50	Y50	Z50	X51	Y51	Z51	

601	2.5	852.61	1247.5	308.11	724.1	1408.2	457.31	732.23	1433.7	150.25	724.1	1732.5	331.11	767.18	960.62	417.61	768.12	974.5	186.01	572.64	1026.2	333.7	581.9	1029.4	251.28	685.89	905.17	495.42	694.71	922.53	125.37	691.27	1061.5	462.34	718.16	1063.8	158.94	546.39	1001.1	295.47	740.53	711.01	525.1	817.86	647.73	499.81	760.1	622.93	529.17	799.41	736.91	490.11	793.39	497.46	507.28	795.81	488.21	380.8	675.63	298.07	522.52	722.94	219.44	517.54	657.03	226.12	524.92	747.68	292.39	517.82	645.01	112.31	513.75	668.55	110.26	436.13	582.02	63.75	466.97	595.14	36.499	440.9	582.78	39.558	501.53	748.75	38.847	567.4	789.52	44.56	462.68	842.84	61.387	512.12	712.84	655.29	107.4	807.73	598.66	108.38	744.11	565.29	117.41	784.13	686.66	97.289	799.98	495.1	110.24	828.62	482.88	235.99	692.05	312.79	92.384	731.13	208.99	92.257	673.64	237.51	92.788	750.11	283.7	89.786	665.95	107.1	90.216	685.22	106.08	177.16	592.09	78.02	132.4	604.65	46.274	164.51	596.73	48.045	100.51	770.48	41.08	52.001	804.62	47.095	156.19	856.79	57.64	107.54	653.98	1470.8	312.06	574.26	1264	298.05
602	2.5042	852.63	1247.5	308.15	724.12	1408.2	457.34	732.29	1433.7	150.27	724.09	1732.5	330.96	767.18	960.62	417.64	768.13	974.5	186.04	572.65	1026.2	333.72	581.92	1029.4	251.31	685.89	905.18	495.45	694.72	922.53	125.4	691.28	1061.5	462.37	718.17	1063.8	158.96	546.4	1001.1	295.5	740.53	711	525.12	817.85	647.72	499.83	760.09	622.93	529.19	799.43	736.91	490.12	793.38	497.46	507.29	795.81	488.21	380.82	675.62	298.07	522.52	722.93	219.44	517.55	657.03	226.12	524.92	747.68	292.39	517.83	645.01	112.31	513.75	668.54	110.26	436.13	582.02	63.75	466.97	595.14	36.499	440.9	582.78	39.558	501.53	748.75	38.848	567.4	789.52	44.561	462.68	842.84	61.387	512.12	712.84	655.29	107.43	807.72	598.66	108.41	744.1	565.3	117.43	784.12	686.67	97.312	799.97	495.11	110.26	828.62	482.88	236	692.05	312.79	92.392	731.13	208.99	92.264	673.64	237.51	92.795	750.11	283.71	89.794	665.95	107.1	90.219	685.22	106.08	177.16	592.09	78.019	132.4	604.65	46.274	164.51	596.73	48.046	100.51	770.48	41.082	52	804.62	47.091	156.19	856.79	57.639	107.54	654.01	1470.8	312.09	574.29	1264	298.07
603	2.5083	852.66	1247.5	308.2	724.14	1408.2	457.37	732.34	1433.7	150.3	724.09	1732.6	330.81	767.19	960.63	417.67	768.14	974.5	186.07	572.66	1026.3	333.75	581.93	1029.4	251.33	685.89	905.19	495.48	694.72	922.53	125.43	691.28	1061.5	462.41	718.18	1063.8	158.99	546.41	1001.1	295.53	740.53	711	525.14	817.85	647.72	499.85	760.08	622.94	529.21	799.46	736.92	490.14	793.37	497.47	507.31	795.81	488.22	380.83	675.62	298.07	522.53	722.93	219.44	517.55	657.02	226.12	524.93	747.67	292.39	517.84	645.01	112.31	513.75	668.54	110.26	436.13	582.02	63.75	466.97	595.14	36.499	440.9	582.78	39.558	501.53	748.75	38.848	567.4	789.52	44.563	462.68	842.84	61.388	512.12	712.83	655.3	107.46	807.71	598.66	108.43	744.09	565.3	117.45	784.12	686.67	97.336	799.96	495.11	110.27	828.62	482.89	236.02	692.05	312.8	92.401	731.13	208.99	92.271	673.64	237.51	92.803	750.11	283.71	89.802	665.95	107.1	90.222	685.22	106.08	177.17	592.09	78.019	132.4	604.65	46.274	164.51	596.73	48.046	100.51	770.48	41.085	51.999	804.62	47.088	156.19	856.79	57.638	107.54	654.05	1470.8	312.11	574.31	1264	298.08
604	2.5125	852.69	1247.5	308.24	724.16	1408.2	457.39	732.4	1433.7	150.32	724.08	1732.6	330.66	767.19	960.63	417.71	768.15	974.5	186.1	572.67	1026.3	333.77	581.95	1029.4	251.35	685.9	905.2	495.52	694.73	922.53	125.46	691.28	1061.5	462.45	718.2	1063.8	159.02	546.42	1001.1	295.56	740.53	711	525.16	817.85	647.73	499.87	760.08	622.94	529.24	799.49	736.92	490.15	793.36	497.47	507.33	795.8	488.22	380.85	675.61	298.07	522.53	722.93	219.44	517.56	657.02	226.11	524.93	747.67	292.39	517.85	645.01	112.31	513.76	668.54	110.26	436.14	582.02	63.75	466.97	595.14	36.499	440.9	582.78	39.558	501.53	748.75	38.848	567.4	789.51	44.565	462.68	842.84	61.388	512.12	712.82	655.31	107.49	807.7	598.67	108.45	744.08	565.31	117.48	784.11	686.67	97.362	799.95	495.12	110.29	828.61	482.89	236.03	692.05	312.8	92.41	731.13	208.99	92.279	673.63	237.51	92.81	750.11	283.71	89.811	665.95	107.1	90.225	685.23	106.08	177.17	592.09	78.019	132.4	604.65	46.274	164.51	596.73	48.046	100.52	770.48	41.087	51.999	804.62	47.084	156.2	856.79	57.637	107.54	654.09	1470.8	312.13	574.34	1264	298.1
605	2.5167	852.72	1247.5	308.28	724.18	1408.2	457.42	732.46	1433.6	150.34	724.08	1732.6	330.52	767.2	960.64	417.74	768.16	974.5	186.13	572.69	1026.3	333.8	581.96	1029.5	251.38	685.9	905.21	495.55	694.74	922.53	125.5	691.28	1061.5	462.48	718.21	1063.8	159.05	546.43	1001.1	295.58	740.53	711	525.18	817.84	647.73	499.89	760.07	622.95	529.26	799.51	736.92	490.17	793.35	497.48	507.35	795.8	488.23	380.87	675.6	298.07	522.54	722.92	219.44	517.56	657.02	226.11	524.94	747.66	292.39	517.85	645.01	112.31	513.76	668.54	110.26	436.14	582.02	63.749	466.97	595.14	36.499	440.9	582.78	39.558	501.53	748.75	38.848	567.4	789.51	44.567	462.68	842.83	61.388	512.12	712.81	655.32	107.52	807.69	598.67	108.48	744.07	565.31	117.5	784.11	686.68	97.388	799.94	495.12	110.31	828.6	482.89	236.05	692.05	312.8	92.419	731.13	208.99	92.288	673.63	237.51	92.818	750.11	283.72	89.821	665.95	107.1	90.228	685.23	106.08	177.17	592.09	78.018	132.4	604.65	46.275	164.51	596.73	48.047	100.52	770.48	41.09	51.999	804.62	47.08	156.2	856.79	57.636	107.54	654.13	1470.8	312.15	574.37	1264	298.12
606	2.5208	852.75	1247.5	308.33	724.2	1408.2	457.45	732.52	1433.6	150.37	724.08	1732.7	330.38	767.2	960.65	417.78	768.18	974.51	186.16	572.7	1026.3	333.82	581.98	1029.5	251.4	685.9	905.22	495.59	694.74	922.53	125.53	691.28	1061.5	462.52	718.23	1063.8	159.08	546.44	1001.1	295.61	740.53	711	525.2	817.84	647.73	499.92	760.06	622.95	529.28	799.53	736.93	490.18	793.34	497.48	507.37	795.79	488.23	380.89	675.6	298.06	522.54	722.92	219.44	517.57	657.01	226.11	524.94	747.66	292.39	517.86	645	112.31	513.76	668.54	110.26	436.14	582.02	63.749	466.97	595.14	36.5	440.9	582.78	39.558	501.53	748.75	38.848	567.39	789.51	44.569	462.68	842.83	61.388	512.12	712.8	655.33	107.55	807.68	598.67	108.51	744.06	565.32	117.53	784.1	686.68	97.416	799.93	495.13	110.33	828.59	482.89	236.07	692.04	312.8	92.43	731.12	209	92.297	673.63	237.51	92.827	750.1	283.72	89.832	665.95	107.1	90.231	685.23	106.08	177.17	592.09	78.018	132.4	604.65	46.275	164.51	596.73	48.047	100.52	770.48	41.092	51.999	804.62	47.076	156.2	856.79	57.636	107.54	654.17	1470.8	312.17	574.4	1264	298.13
607	2.525	852.77	1247.5	308.38	724.22	1408.2	457.48	732.58	1433.6	150.39	724.08	1732.7	330.25	767.21	960.66	417.81	768.19	974.51	186.2	572.71	1026.3	333.85	581.99	1029.5	251.43	685.9	905.24	495.62	694.75	922.54	125.56	691.29	1061.5	462.56	718.24	1063.8	159.11	546.45	1001.2	295.64	740.53	711	525.22	817.84	647.73	499.94	760.06	622.96	529.31	799.55	736.93	490.2	793.33	497.49	507.39	795.78	488.24	380.91	675.59	298.06	522.55	722.92	219.44	517.58	657.01	226.11	524.95	747.65	292.39	517.87	645	112.31	513.76	668.54	110.27	436.14	582.01	63.749	466.97	595.14	36.5	440.9	582.78	39.558	501.53	748.75	38.848	567.39	789.51	44.571	462.68	842.83	61.388	512.12	712.8	655.34	107.59	807.67	598.68	108.53	744.05	565.33	117.55	784.1	686.69	97.444	799.91	495.14	110.35	828.58	482.89	236.08	692.04	312.81	92.441	731.12	209	92.306	673.62	237.52	92.836	750.1	283.72	89.843	665.95	107.1	90.234	685.23	106.08	177.17	592.09	78.018	132.4	604.65	46.275	164.51	596.73	48.047	100.52	770.48	41.093	52	804.61	47.072	156.21	856.79	57.635	107.54	654.2	1470.8	312.19	574.43	1264	298.15
608	2.5292	852.8	1247.4	308.43	724.24	1408.2	457.51	732.64	1433.6	150.42	724.09	1732.8	330.12	767.21	960.68	417.85	768.2	974.52	186.23	572.72	1026.3	333.87	582.01	1029.5	251.46	685.91	905.25	495.66	694.77	922.55	125.6	691.29	1061.5	462.6	718.26	1063.8	159.14	546.46	1001.2	295.67	740.53	711	525.24	817.83	647.73	499.96	760.06	622.96	529.33	799.56	736.94	490.21	793.32	497.49	507.41	795.77	488.25	380.93	675.58	298.06	522.56	722.92	219.44	517.58	657	226.11	524.95	747.65	292.39	517.88	645	112.31	513.76	668.54	110.27	436.15	582.01	63.749	466.97	595.14	36.502	440.9	582.78	39.558	501.53	748.75	38.848	567.39	789.51	44.572	462.68	842.83	61.389	512.12	712.79	655.36	107.62	807.66	598.68	108.56	744.04	565.33	117.58	784.09	686.69	97.472	799.9	495.14	110.37	828.57	482.9	236.11	692.04	312.81	92.452	731.12	209	92.316	673.62	237.52	92.845	750.1	283.73	89.854	665.95	107.11	90.237	685.23	106.08	177.18	592.09	78.018	132.41	604.65	46.275	164.51	596.73	48.048	100.52	770.48	41.094	52.001	804.61	47.068	156.21	856.79	57.635	107.54	654.24	1470.8	312.21	574.46	1264.1	298.17
609	2.5333	852.83	1247.4	308.48	724.26	1408.2	457.54	732.7	1433.6	150.45	724.09	1732.8	330	767.22	960.69	417.89	768.22	974.53	186.27	572.73	1026.4	333.9	582.02	1029.5	251.48	685.91	905.26	495.69	694.78	922.55	125.63	691.29	1061.5	462.64	718.27	1063.8	159.17	546.47	1001.2	295.69	740.53	711	525.27	817.83	647.73	499.98	760.05	622.97	529.36	799.57	736.94	490.23	793.32	497.5	507.43	795.75	488.26	380.95	675.58	298.06	522.56	722.91	219.44	517.59	657	226.11	524.96	747.65	292.4	517.88	645	112.31	513.77	668.54	110.27	436.15	582.01	63.749	466.97	595.14	36.503	440.9	582.78	39.558	501.53	748.75	38.848	567.39	789.51	44.573	462.68	842.83	61.389	512.12	712.79	655.37	107.65	807.65	598.69	108.59	744.03	565.34	117.61	784.09	686.7	97.501	799.89	495.15	110.39	828.55	482.9	236.13	692.03	312.81	92.464	731.12	209.01	92.325	673.61	237.52	92.855	750.09	283.73	89.866	665.94	107.11	90.24	685.23	106.08	177.18	592.1	78.018	132.41	604.65	46.276	164.51	596.73	48.049	100.52	770.48	41.096	52.002	804.61	47.064	156.21	856.79	57.634	107.55	654.28	1470.8	312.23	574.49	1264.1	298.19
